<svg width="40.000000" height="40.000000" viewBox="0 0 40 40" fill="none" xmlns="http://www.w3.org/2000/svg" xmlns:xlink="http://www.w3.org/1999/xlink">
	<desc>
			Created with Pixso.
	</desc>
	<defs>
		<clipPath id="clip2_187">
			<rect id="Icon" rx="-0.500000" width="39.000000" height="39.000000" transform="translate(0.500000 0.500000)" fill="white" fill-opacity="0"/>
		</clipPath>
	</defs>
	<g clip-path="url(#clip2_187)">
		<path id="Vector" d="M22.97 30C27.97 30 29.97 28 29.97 23L29.97 17C29.97 12 27.97 10 22.97 10L16.96 10C11.97 10 9.96 12 9.96 17L9.96 23C9.96 28 11.97 30 16.96 30L22.97 30Z" stroke="#FFFFFF" stroke-opacity="1.000000" stroke-width="1.500000" stroke-linejoin="round"/>
		<g opacity="0.400000">
			<path id="Vector" d="M9.96 20.7L15.97 20.68C16.71 20.68 17.56 21.25 17.84 21.95L18.98 24.83C19.24 25.48 19.65 25.48 19.91 24.83L22.2 19.02C22.42 18.45 22.83 18.44 23.11 18.96L24.15 20.94C24.46 21.53 25.25 22.01 25.92 22.01L29.98 22.01" stroke="#FFFFFF" stroke-opacity="1.000000" stroke-width="1.500000" stroke-linejoin="round" stroke-linecap="round"/>
		</g>
		<g opacity="0.000000">
			<path id="Vector" d="M8 8L32 8L32 32L8 32L8 8ZM9 31L9 9L31 9L31 31L9 31Z" fill="#FFFFFF" fill-opacity="1.000000" fill-rule="evenodd"/>
		</g>
	</g>
</svg>
