<svg width="40.000000" height="40.000000" viewBox="0 0 40 40" fill="none" xmlns="http://www.w3.org/2000/svg" xmlns:xlink="http://www.w3.org/1999/xlink">
	<desc>
			Created with Pixso.
	</desc>
	<defs>
		<clipPath id="clip2_169">
			<rect id="Icon" rx="-0.500000" width="39.000000" height="39.000000" transform="translate(0.500000 0.500000)" fill="white" fill-opacity="0"/>
		</clipPath>
	</defs>
	<g clip-path="url(#clip2_169)">
		<path id="Vector" d="M23 30C28 30 30 28 30 23L30 17C30 12 28 10 23 10L17 10C12 10 10 12 10 17L10 23C10 28 12 30 17 30L23 30Z" stroke="#FFFFFF" stroke-opacity="1.000000" stroke-width="1.500000" stroke-linejoin="round"/>
		<g opacity="0.400000">
			<path id="Vector" d="M23.75 17L16.25 17" stroke="#FFFFFF" stroke-opacity="1.000000" stroke-width="1.500000" stroke-linejoin="round" stroke-linecap="round"/>
		</g>
		<g opacity="0.400000">
			<path id="Vector" d="M23.75 23L16.25 23" stroke="#FFFFFF" stroke-opacity="1.000000" stroke-width="1.500000" stroke-linejoin="round" stroke-linecap="round"/>
		</g>
		<g opacity="0.000000">
			<path id="Vector" d="M8 8L32 8L32 32L8 32L8 8ZM9 31L9 9L31 9L31 31L9 31Z" fill="#FFFFFF" fill-opacity="1.000000" fill-rule="evenodd"/>
		</g>
	</g>
</svg>
