<svg width="40.000000" height="40.000000" viewBox="0 0 40 40" fill="none" xmlns="http://www.w3.org/2000/svg" xmlns:xlink="http://www.w3.org/1999/xlink">
	<desc>
			Created with Pixso.
	</desc>
	<defs>
		<clipPath id="clip2_119">
			<rect id="Icon" rx="-0.500000" width="39.000000" height="39.000000" transform="translate(0.500000 0.500000)" fill="white" fill-opacity="0"/>
		</clipPath>
	</defs>
	<g clip-path="url(#clip2_119)">
		<path id="Vector" d="M29.37 13.75C29.72 13.89 30 14.31 30 14.68L30 18C30 18.54 29.55 19 29 19L11 19C10.45 19 10 18.54 10 18L10 14.68C10 14.31 10.28 13.89 10.63 13.75L19.62 10.14C19.83 10.07 20.17 10.07 20.37 10.14L29.37 13.75Z" stroke="#FFFFFF" stroke-opacity="1.000000" stroke-width="1.500000" stroke-linejoin="round"/>
		<path id="Vector" d="M10 30L10 27C10 26.45 10.45 26 11 26L29 26C29.55 26 30 26.45 30 27L30 30L10 30Z" stroke="#FFFFFF" stroke-opacity="1.000000" stroke-width="1.500000" stroke-linejoin="round"/>
		<g opacity="0.400000">
			<path id="Vector" d="M12 26L12 19" stroke="#FFFFFF" stroke-opacity="1.000000" stroke-width="1.500000" stroke-linejoin="round" stroke-linecap="round"/>
		</g>
		<g opacity="0.400000">
			<path id="Vector" d="M16 26L16 19" stroke="#FFFFFF" stroke-opacity="1.000000" stroke-width="1.500000" stroke-linejoin="round" stroke-linecap="round"/>
		</g>
		<g opacity="0.400000">
			<path id="Vector" d="M20 26L20 19" stroke="#FFFFFF" stroke-opacity="1.000000" stroke-width="1.500000" stroke-linejoin="round" stroke-linecap="round"/>
		</g>
		<g opacity="0.400000">
			<path id="Vector" d="M24 26L24 19" stroke="#FFFFFF" stroke-opacity="1.000000" stroke-width="1.500000" stroke-linejoin="round" stroke-linecap="round"/>
		</g>
		<g opacity="0.400000">
			<path id="Vector" d="M28 26L28 19" stroke="#FFFFFF" stroke-opacity="1.000000" stroke-width="1.500000" stroke-linejoin="round" stroke-linecap="round"/>
		</g>
		<path id="Vector" d="M9 30L31 30" stroke="#FFFFFF" stroke-opacity="1.000000" stroke-width="1.500000" stroke-linejoin="round" stroke-linecap="round"/>
		<g opacity="0.400000">
			<path id="Vector" d="M20 16.5C19.17 16.5 18.5 15.82 18.5 15C18.5 14.17 19.17 13.5 20 13.5C20.82 13.5 21.5 14.17 21.5 15C21.5 15.82 20.82 16.5 20 16.5Z" stroke="#FFFFFF" stroke-opacity="1.000000" stroke-width="1.500000" stroke-linejoin="round"/>
		</g>
		<g opacity="0.000000">
			<path id="Vector" d="M8 8L32 8L32 32L8 32L8 8ZM9 31L9 9L31 9L31 31L9 31Z" fill="#FFFFFF" fill-opacity="1.000000" fill-rule="evenodd"/>
		</g>
	</g>
</svg>
