<svg width="40.000000" height="40.000000" viewBox="0 0 40 40" fill="none" xmlns="http://www.w3.org/2000/svg" xmlns:xlink="http://www.w3.org/1999/xlink">
	<desc>
			Created with Pixso.
	</desc>
	<defs>
		<clipPath id="clip2_134">
			<rect id="Icon" rx="-0.500000" width="39.000000" height="39.000000" transform="translate(0.500000 0.500000)" fill="white" fill-opacity="0"/>
		</clipPath>
	</defs>
	<g clip-path="url(#clip2_134)">
		<path id="Vector" d="M20.63 10.58L17.73 17.31L14.88 17.31C14.2 17.31 13.55 17.45 12.96 17.7L14.71 13.52L14.75 13.42L14.82 13.26C14.84 13.2 14.86 13.14 14.89 13.09C16.2 10.06 17.68 9.37 20.66 10.51L20.63 10.58Z" stroke="#FFFFFF" stroke-opacity="1.000000" stroke-width="1.500000" stroke-linejoin="round"/>
		<path id="Vector" d="M24.64 17.31L17.73 17.31L20.63 10.58L20.66 10.51C20.81 10.56 20.95 10.63 21.1 10.69L23.31 11.62C24.54 12.13 25.4 12.66 25.92 13.3C26.02 13.42 26.1 13.53 26.17 13.66C26.26 13.8 26.33 13.94 26.37 14.09C26.41 14.18 26.44 14.27 26.46 14.35C26.73 15.19 26.57 16.22 26.05 17.51C25.6 17.37 25.12 17.31 24.64 17.31Z" stroke="#FFFFFF" stroke-opacity="1.000000" stroke-width="1.500000" stroke-linejoin="round"/>
		<path id="Vector" d="M29.52 24.14C29.52 24.34 29.51 24.54 29.5 24.74C29.31 28.23 27.36 29.99 23.66 29.99L15.86 29.99C15.62 29.99 15.38 29.97 15.15 29.94C11.97 29.73 10.27 28.03 10.06 24.85C10.03 24.62 10.01 24.38 10.01 24.14L10.01 22.19C10.01 20.18 11.23 18.45 12.97 17.7C13.57 17.45 14.21 17.31 14.89 17.31L24.65 17.31C25.14 17.31 25.62 17.38 26.06 17.51C28.05 18.12 29.52 19.98 29.52 22.19L29.52 24.14Z" stroke="#FFFFFF" stroke-opacity="1.000000" stroke-width="1.500000" stroke-linejoin="round"/>
		<g opacity="0.400000">
			<path id="Vector" d="M12.96 17.7C11.22 18.45 10 20.18 10 22.19L10 19.26C10 16.42 12.02 14.05 14.71 13.52L12.96 17.7Z" stroke="#FFFFFF" stroke-opacity="1.000000" stroke-width="1.500000" stroke-linejoin="round"/>
		</g>
		<g opacity="0.400000">
			<path id="Vector" d="M29.51 22.19C29.51 19.99 28.05 18.12 26.05 17.52C26.57 16.22 26.72 15.2 26.47 14.35C26.45 14.26 26.42 14.17 26.38 14.09C28.24 15.05 29.51 17.02 29.51 19.26L29.51 22.19Z" stroke="#FFFFFF" stroke-opacity="1.000000" stroke-width="1.500000" stroke-linejoin="round"/>
		</g>
		<g opacity="0.000000">
			<path id="Vector" d="M8 8L32 8L32 32L8 32L8 8ZM9 31L9 9L31 9L31 31L9 31Z" fill="#FFFFFF" fill-opacity="1.000000" fill-rule="evenodd"/>
		</g>
	</g>
</svg>
