<svg width="25.265198" height="21.146667" viewBox="0 0 25.2652 21.1467" fill="none" xmlns="http://www.w3.org/2000/svg" xmlns:xlink="http://www.w3.org/1999/xlink">
	<desc>
			Created with Pixso.
	</desc>
	<defs/>
	<path id="Vector" d="M19.91 21.14L12.91 21.14C12.45 21.14 12.03 20.91 11.78 20.54L8.62 15.79L6.17 19.98C5.93 20.39 5.51 20.64 5.04 20.65C4.59 20.7 4.13 20.45 3.87 20.05L0.22 14.57C-0.08 14.11 -0.08 13.52 0.22 13.06L4.2 7.1C4.45 6.72 4.87 6.5 5.33 6.5L10.67 6.5L8.07 2.03C7.83 1.61 7.82 1.09 8.07 0.68C8.3 0.26 8.76 0 9.24 0L16.65 0C17.12 0 17.58 0.26 17.82 0.67L25.07 13.1C25.33 13.56 25.32 14.1 25.03 14.53L21.04 20.51C20.78 20.91 20.36 21.14 19.91 21.14ZM13.05 19.52L19.77 19.52L23.58 13.8L16.48 1.64L9.7 1.64L13.49 8.14L16.09 12.61C16.33 13.02 16.34 13.54 16.09 13.96C15.86 14.38 15.4 14.64 14.92 14.64L9.8 14.64L13.05 19.52ZM1.67 13.83L4.99 18.79L7.42 14.64L11.21 8.14L5.48 8.14L1.67 13.83ZM10.24 13.02L14.46 13.02L12.36 9.41L10.24 13.02Z" fill="#FFFFFF" fill-opacity="1.000000" fill-rule="nonzero"/>
</svg>
