<svg width="24.000000" height="24.000000" viewBox="0 0 24 24" fill="none" xmlns="http://www.w3.org/2000/svg" xmlns:xlink="http://www.w3.org/1999/xlink">
	<desc>
			Created with Pixso.
	</desc>
	<defs/>
	<path id="Vector" d="M0 1.51C0 0.67 0.66 0 1.51 0L4.48 0C5.32 0 6 0.66 6 1.51L6 4.48C6 5.32 5.33 6 4.48 6L1.51 6C0.67 6 0 5.33 0 4.48L0 1.51ZM0 10.51C0 9.67 0.66 9 1.51 9L4.48 9C5.32 9 6 9.66 6 10.51L6 13.48C6 14.32 5.33 15 4.48 15L1.51 15C0.67 15 0 14.33 0 13.48L0 10.51ZM9 1.51C9 0.67 9.66 0 10.51 0L13.48 0C14.32 0 15 0.66 15 1.51L15 4.48C15 5.32 14.33 6 13.48 6L10.51 6C9.67 6 9 5.33 9 4.48L9 1.51ZM9 10.51C9 9.67 9.66 9 10.51 9L13.48 9C14.32 9 15 9.66 15 10.51L15 13.48C15 14.32 14.33 15 13.48 15L10.51 15C9.67 15 9 14.33 9 13.48L9 10.51ZM18 1.51C18 0.67 18.66 0 19.51 0L22.48 0C23.32 0 24 0.66 24 1.51L24 4.48C24 5.32 23.33 6 22.48 6L19.51 6C18.67 6 18 5.33 18 4.48L18 1.51ZM18 10.51C18 9.67 18.66 9 19.51 9L22.48 9C23.32 9 24 9.66 24 10.51L24 13.48C24 14.32 23.33 15 22.48 15L19.51 15C18.67 15 18 14.33 18 13.48L18 10.51ZM0 19.51C0 18.67 0.66 18 1.51 18L4.48 18C5.32 18 6 18.66 6 19.51L6 22.48C6 23.32 5.33 24 4.48 24L1.51 24C0.67 24 0 23.33 0 22.48L0 19.51ZM9 19.51C9 18.67 9.66 18 10.51 18L13.48 18C14.32 18 15 18.66 15 19.51L15 22.48C15 23.32 14.33 24 13.48 24L10.51 24C9.67 24 9 23.33 9 22.48L9 19.51ZM18 19.51C18 18.67 18.66 18 19.51 18L22.48 18C23.32 18 24 18.66 24 19.51L24 22.48C24 23.32 23.33 24 22.48 24L19.51 24C18.67 24 18 23.33 18 22.48L18 19.51Z" fill="#292929" fill-opacity="1.000000" fill-rule="nonzero"/>
</svg>
