<svg width="50.000000" height="50.000000" viewBox="0 0 50 50" fill="none" xmlns="http://www.w3.org/2000/svg" xmlns:xlink="http://www.w3.org/1999/xlink">
	<desc>
			Created with Pixso.
	</desc>
	<defs/>
	<path id="Vector" d="M42.7 23.54L42.7 14.66C42.7 6.27 40.74 4.16 32.87 4.16L17.12 4.16C9.24 4.16 7.29 6.27 7.29 14.66L7.29 38.12C7.29 43.66 10.33 44.97 14.02 41.02L14.04 41C15.74 39.18 18.35 39.33 19.83 41.31L21.93 44.12" stroke="#292929" stroke-opacity="1.000000" stroke-width="2.000000" stroke-linejoin="round" stroke-linecap="round"/>
	<path id="Vector" d="M37.5 32.29L37.5 44.79L41.66 40.62" stroke="#292929" stroke-opacity="1.000000" stroke-width="2.000000" stroke-linejoin="round" stroke-linecap="round"/>
	<path id="Vector" d="M37.5 44.79L33.33 40.62" stroke="#292929" stroke-opacity="1.000000" stroke-width="2.000000" stroke-linejoin="round" stroke-linecap="round"/>
	<g opacity="0.500000">
		<path id="Vector" d="M16.66 14.58L33.33 14.58" stroke="#292929" stroke-opacity="1.000000" stroke-width="1.500000" stroke-linejoin="round" stroke-linecap="round"/>
	</g>
	<g opacity="0.500000">
		<path id="Vector" d="M18.75 22.91L31.25 22.91" stroke="#292929" stroke-opacity="1.000000" stroke-width="1.500000" stroke-linejoin="round" stroke-linecap="round"/>
	</g>
	<g opacity="0.000000">
		<path id="Vector" d="M0 0L50 0L50 50L0 50L0 0ZM1 49L1 1L49 1L49 49L1 49Z" fill="#292929" fill-opacity="1.000000" fill-rule="evenodd"/>
	</g>
</svg>
