<svg width="128.000000" height="128.000000" viewBox="0 0 54 54" fill="none" xmlns="http://www.w3.org/2000/svg" xmlns:xlink="http://www.w3.org/1999/xlink">
	<desc>
			Created with Pixso.
	</desc>
	<defs/>
	<path id="Vector" d="M22.99 33.99C18.99 33.99 16.99 32.99 16.99 27.99L16.99 22.99C16.99 18.99 18.99 16.99 22.99 16.99L30.99 16.99C34.99 16.99 36.99 18.99 36.99 22.99L36.99 27.99C36.99 31.99 34.99 33.99 30.99 33.99L30.49 33.99C30.18 33.99 29.88 34.14 29.69 34.39L28.19 36.39C27.53 37.27 26.45 37.27 25.79 36.39L24.29 34.39C24.13 34.17 23.76 33.99 23.49 33.99L22.99 33.99Z" stroke="#292929" stroke-opacity="0.800000" stroke-width="2.000000" stroke-linejoin="round"/>
	<path id="Vector" d="M30.99 26L31 26" stroke="#292929" stroke-opacity="0.800000" stroke-width="2.000000" stroke-linejoin="round" stroke-linecap="round"/>
	<path id="Vector" d="M26.99 26L27 26" stroke="#292929" stroke-opacity="0.800000" stroke-width="2.000000" stroke-linejoin="round" stroke-linecap="round"/>
	<path id="Vector" d="M22.99 26L23 26" stroke="#292929" stroke-opacity="0.800000" stroke-width="2.000000" stroke-linejoin="round" stroke-linecap="round"/>
	<g opacity="0.000000"/>
</svg>
