<svg width="250.000000" height="40.000000" viewBox="0 0 250 40" fill="none" xmlns="http://www.w3.org/2000/svg" xmlns:xlink="http://www.w3.org/1999/xlink">
	<desc>
			Created with Pixso.
	</desc>
	<defs>
		<clipPath id="clip2_11">
			<rect id="logo" rx="-0.500000" width="39.000000" height="39.000000" transform="translate(4.500000 0.500000)" fill="white" fill-opacity="0"/>
		</clipPath>
		<clipPath id="clip2_16">
			<rect id="Logotype 1" rx="-0.500000" width="102.102325" height="39.000000" transform="translate(49.500000 0.500000)" fill="white" fill-opacity="0"/>
		</clipPath>
		<clipPath id="clip2_10">
			<rect id="Ablem" rx="-0.500000" width="249.000000" height="39.000000" transform="translate(0.500000 0.500000)" fill="white" fill-opacity="0"/>
		</clipPath>
	</defs>
	<rect id="Ablem" rx="-0.500000" width="249.000000" height="39.000000" transform="translate(0.500000 0.500000)" fill="#1552D8" fill-opacity="0"/>
	<g clip-path="url(#clip2_10)">
		<g clip-path="url(#clip2_11)">
			<path id="Vector" d="M39.89 17.04C39.82 18.1 38.95 19.37 37.99 19.81C36.59 20.46 35.02 20.07 34.07 18.97L34.03 18.93C33.94 18.85 33.85 18.76 33.78 18.67L33.73 18.62C33.64 18.53 33.55 18.45 33.48 18.35L33.43 18.31C33.34 18.23 33.25 18.14 33.18 18.05L33.13 18C33.04 17.92 32.95 17.83 32.88 17.74L32.83 17.69C32.74 17.61 32.66 17.52 32.58 17.43L32.53 17.38C32.44 17.3 32.36 17.21 32.28 17.12L32.23 17.07C32.14 16.99 32.06 16.9 31.98 16.81L31.93 16.76C31.89 16.73 31.86 16.7 31.83 16.66C31.42 16.3 30.88 16.08 30.29 16.08C29.67 16.08 29.1 16.33 28.69 16.73C28.67 16.74 28.66 16.75 28.65 16.76L28.6 16.81C28.52 16.9 28.44 16.99 28.35 17.07L28.3 17.12C28.23 17.21 28.14 17.3 28.05 17.38L28 17.43C27.93 17.52 27.84 17.61 27.75 17.69L27.7 17.74C27.62 17.83 27.54 17.92 27.45 18L27.41 18.05C27.32 18.14 27.24 18.23 27.15 18.31L27.11 18.36C27.02 18.45 26.94 18.54 26.85 18.62L26.8 18.67C26.72 18.76 26.64 18.85 26.55 18.93L26.5 18.98C25.87 19.71 24.96 20.13 24 20.13C23.03 20.13 22.12 19.71 21.49 18.98L21.44 18.92C21.35 18.85 21.27 18.76 21.19 18.67L21.14 18.62C21.05 18.53 20.97 18.45 20.89 18.36L20.84 18.31C20.75 18.23 20.67 18.14 20.59 18.05L20.54 18C20.45 17.92 20.37 17.83 20.29 17.74L20.24 17.69C20.15 17.61 20.07 17.52 19.99 17.43L19.94 17.38C19.85 17.3 19.77 17.21 19.69 17.12L19.64 17.07C19.56 16.99 19.47 16.9 19.39 16.81L19.34 16.76C19.34 16.76 19.34 16.76 19.34 16.76L19.34 16.76C19.32 16.75 19.31 16.73 19.29 16.71C19.28 16.7 19.27 16.7 19.26 16.69C18.85 16.31 18.3 16.08 17.7 16.08C17.1 16.08 16.6 16.29 16.2 16.64C16.19 16.65 16.19 16.65 16.18 16.65C16.14 16.69 16.11 16.73 16.07 16.77L16.02 16.81C15.94 16.9 15.86 16.99 15.77 17.07L15.72 17.12C15.64 17.21 15.56 17.3 15.47 17.38L15.42 17.43C15.34 17.52 15.26 17.61 15.17 17.69L15.12 17.74C15.04 17.83 14.96 17.92 14.87 18L14.82 18.05C14.75 18.14 14.66 18.23 14.57 18.31L14.52 18.36C14.45 18.45 14.36 18.54 14.27 18.62L14.23 18.67C14.15 18.76 14.06 18.85 13.97 18.93L13.93 18.98C12.98 20.07 11.42 20.46 10.01 19.82C9.04 19.38 8.18 18.1 8.1 17.04C8.03 16.02 8.41 15.07 9.15 14.38L9.2 14.33C9.28 14.24 9.37 14.15 9.45 14.07L9.5 14.02C9.58 13.93 9.66 13.84 9.76 13.76L9.8 13.71C9.88 13.62 9.96 13.53 10.05 13.45L10.1 13.4C10.18 13.31 10.26 13.22 10.35 13.14L10.4 13.09C10.48 13 10.56 12.92 10.65 12.83L10.7 12.78C10.78 12.69 10.86 12.6 10.95 12.52L11 12.47C11.08 12.38 11.16 12.3 11.25 12.21L11.3 12.17C11.38 12.07 11.47 11.99 11.55 11.91L11.6 11.85C11.68 11.76 11.77 11.68 11.85 11.59L11.9 11.55C11.98 11.46 12.06 11.37 12.15 11.29L12.2 11.24C12.28 11.15 12.36 11.06 12.45 10.98L12.5 10.93C12.58 10.83 12.66 10.75 12.75 10.67L12.8 10.62C12.88 10.53 12.96 10.44 13.05 10.36L13.1 10.31C13.17 10.22 13.26 10.13 13.35 10.05L13.4 10C13.47 9.91 13.56 9.82 13.65 9.74L13.7 9.69C13.77 9.6 13.86 9.51 13.95 9.43L13.99 9.38C14.07 9.29 14.16 9.2 14.25 9.12L14.29 9.07C14.38 8.98 14.46 8.89 14.54 8.81L14.59 8.77C14.67 8.67 14.76 8.59 14.84 8.5L14.89 8.45C14.97 8.36 15.06 8.27 15.14 8.19L15.19 8.14C15.83 7.41 16.74 7 17.71 7C18.67 7 19.58 7.41 20.21 8.14L20.26 8.19C20.35 8.27 20.43 8.36 20.51 8.45L20.56 8.5C20.65 8.59 20.74 8.67 20.81 8.77L20.86 8.81C20.95 8.89 21.03 8.98 21.11 9.07L21.16 9.12C21.25 9.2 21.33 9.29 21.41 9.38L21.46 9.43C21.55 9.51 21.63 9.6 21.71 9.69L21.76 9.74C21.84 9.82 21.93 9.91 22.01 10L22.06 10.05C22.14 10.13 22.23 10.22 22.31 10.31L22.36 10.36L22.36 10.36C22.38 10.39 22.41 10.41 22.44 10.44C22.85 10.81 23.4 11.04 24 11.04C24.6 11.04 25.18 10.79 25.6 10.39C25.63 10.36 25.66 10.33 25.68 10.31C25.76 10.22 25.85 10.13 25.93 10.05L25.98 10C26.06 9.91 26.14 9.82 26.24 9.74L26.28 9.69C26.36 9.6 26.44 9.51 26.53 9.43L26.58 9.38C26.66 9.29 26.74 9.2 26.83 9.12L26.88 9.07C26.96 8.98 27.05 8.9 27.13 8.81L27.18 8.76C27.26 8.67 27.35 8.58 27.43 8.5L27.48 8.45C27.56 8.36 27.64 8.28 27.73 8.19L27.78 8.14C28.41 7.41 29.33 7 30.29 7C31.25 7 32.16 7.41 32.8 8.15L32.84 8.19C32.93 8.28 33.02 8.36 33.09 8.45L33.14 8.5C33.24 8.59 33.32 8.67 33.39 8.76L33.44 8.81C33.53 8.9 33.62 8.98 33.69 9.07L33.74 9.12C33.83 9.2 33.91 9.29 33.99 9.38L34.04 9.43C34.13 9.51 34.21 9.6 34.3 9.69L34.34 9.74C34.43 9.83 34.51 9.91 34.6 10L34.64 10.05C34.73 10.14 34.81 10.22 34.89 10.31L34.94 10.36C35.03 10.44 35.11 10.53 35.19 10.62L35.24 10.67C35.33 10.75 35.41 10.84 35.49 10.93L35.54 10.98C35.63 11.06 35.71 11.15 35.79 11.24L35.84 11.29C35.93 11.37 36.02 11.46 36.09 11.55L36.14 11.6C36.23 11.68 36.31 11.77 36.39 11.86L36.44 11.91C36.53 11.99 36.61 12.08 36.69 12.17L36.74 12.22C36.83 12.3 36.91 12.39 36.99 12.48L37.04 12.52C37.12 12.61 37.21 12.69 37.29 12.78L37.34 12.84C37.42 12.92 37.51 13.01 37.59 13.09L37.63 13.14C37.72 13.23 37.81 13.31 37.89 13.4L37.94 13.45C38.03 13.54 38.11 13.62 38.19 13.71L38.23 13.76C38.32 13.84 38.41 13.93 38.49 14.02L38.53 14.07C38.62 14.16 38.71 14.24 38.79 14.33L38.83 14.38C39.57 15.07 39.96 16.03 39.89 17.04L39.89 17.04Z" fill="#FFFFFF" fill-opacity="1.000000" fill-rule="nonzero"/>
			<path id="Vector" d="M39.89 29.91C39.82 30.96 38.95 32.24 37.99 32.68C36.59 33.32 35.02 32.94 34.07 31.84L34.03 31.8C33.94 31.71 33.85 31.63 33.77 31.53L33.73 31.48C33.64 31.4 33.55 31.31 33.48 31.22L33.43 31.18C33.33 31.09 33.25 31.01 33.17 30.91L33.13 30.87C33.04 30.79 32.95 30.7 32.88 30.61L32.83 30.56C32.74 30.47 32.66 30.39 32.58 30.3L32.53 30.25C32.44 30.17 32.36 30.08 32.28 29.99L32.23 29.94C32.14 29.86 32.06 29.77 31.98 29.68L31.93 29.63C31.89 29.6 31.86 29.56 31.83 29.53C31.42 29.17 30.88 28.95 30.29 28.95C29.67 28.95 29.1 29.2 28.69 29.6C28.67 29.61 28.66 29.62 28.65 29.63L28.6 29.68C28.52 29.77 28.44 29.86 28.35 29.94L28.3 29.99C28.22 30.08 28.14 30.17 28.05 30.25L28 30.3C27.93 30.39 27.84 30.48 27.75 30.56L27.7 30.61C27.62 30.7 27.54 30.79 27.45 30.87L27.41 30.92C27.32 31.01 27.24 31.09 27.15 31.18L27.11 31.23C27.02 31.32 26.94 31.41 26.85 31.49L26.8 31.54C26.72 31.63 26.64 31.71 26.55 31.8L26.5 31.84C25.87 32.58 24.96 32.99 24 32.99C23.03 32.99 22.12 32.58 21.49 31.84L21.44 31.79C21.35 31.71 21.27 31.63 21.19 31.54L21.14 31.48C21.05 31.4 20.97 31.31 20.89 31.22L20.84 31.18C20.75 31.09 20.67 31.01 20.59 30.92L20.54 30.87C20.45 30.79 20.37 30.7 20.29 30.61L20.24 30.56C20.15 30.47 20.07 30.39 19.99 30.3L19.94 30.25C19.85 30.17 19.77 30.08 19.69 29.99L19.64 29.94C19.56 29.86 19.47 29.77 19.39 29.68L19.34 29.63C19.34 29.63 19.34 29.63 19.34 29.63L19.34 29.63C19.32 29.61 19.31 29.6 19.29 29.58C19.28 29.57 19.27 29.56 19.26 29.55C18.85 29.18 18.3 28.95 17.7 28.95C17.1 28.95 16.6 29.16 16.2 29.51C16.19 29.51 16.19 29.52 16.18 29.52C16.14 29.56 16.11 29.6 16.07 29.63L16.02 29.68C15.94 29.77 15.85 29.86 15.77 29.94L15.72 29.99C15.64 30.08 15.55 30.17 15.47 30.25L15.42 30.3C15.34 30.39 15.26 30.47 15.17 30.56L15.12 30.61C15.04 30.7 14.96 30.79 14.87 30.87L14.82 30.92C14.74 31.01 14.66 31.1 14.57 31.18L14.52 31.22C14.45 31.32 14.36 31.4 14.27 31.49L14.23 31.54C14.15 31.63 14.06 31.72 13.97 31.8L13.93 31.84C12.98 32.94 11.42 33.33 10.01 32.68C9.05 32.25 8.18 30.97 8.11 29.92C8.03 28.9 8.42 27.94 9.16 27.25L9.21 27.2C9.29 27.11 9.37 27.02 9.46 26.94L9.51 26.89C9.59 26.8 9.67 26.71 9.76 26.63L9.81 26.58C9.89 26.49 9.97 26.4 10.06 26.32L10.11 26.27C10.18 26.18 10.27 26.09 10.36 26.01L10.41 25.96C10.48 25.87 10.57 25.79 10.66 25.7L10.7 25.65C10.78 25.56 10.87 25.47 10.96 25.39L11 25.34C11.08 25.25 11.16 25.17 11.26 25.08L11.3 25.04C11.38 24.94 11.47 24.86 11.56 24.78L11.6 24.72C11.68 24.63 11.77 24.55 11.85 24.46L11.9 24.42C11.98 24.33 12.07 24.24 12.15 24.16L12.2 24.11C12.28 24.02 12.37 23.93 12.45 23.85L12.5 23.8C12.58 23.7 12.67 23.62 12.75 23.54L12.8 23.49C12.88 23.4 12.97 23.31 13.05 23.23L13.1 23.18C13.18 23.09 13.26 23 13.35 22.92L13.4 22.87C13.48 22.78 13.56 22.69 13.65 22.61L13.7 22.56C13.78 22.47 13.86 22.38 13.95 22.3L14 22.25C14.07 22.16 14.16 22.07 14.25 21.99L14.3 21.94C14.38 21.85 14.46 21.76 14.55 21.68L14.6 21.64C14.67 21.54 14.76 21.46 14.85 21.37L14.9 21.32C14.98 21.23 15.06 21.14 15.15 21.06L15.19 21.01C15.83 20.28 16.74 19.87 17.71 19.87C18.67 19.87 19.58 20.28 20.21 21.01L20.26 21.06C20.35 21.14 20.43 21.23 20.51 21.32L20.56 21.37C20.65 21.46 20.74 21.54 20.81 21.64L20.86 21.68C20.95 21.76 21.03 21.85 21.11 21.94L21.16 21.99C21.25 22.07 21.33 22.16 21.41 22.25L21.46 22.3C21.55 22.38 21.63 22.47 21.71 22.56L21.76 22.61C21.85 22.69 21.93 22.78 22.01 22.87L22.06 22.92C22.14 23 22.23 23.09 22.31 23.18L22.36 23.23L22.36 23.23C22.39 23.26 22.41 23.28 22.44 23.31C22.85 23.68 23.4 23.91 24 23.91C24.6 23.91 25.19 23.66 25.6 23.26C25.63 23.23 25.66 23.2 25.68 23.18C25.76 23.09 25.85 23 25.93 22.92L25.98 22.87C26.06 22.78 26.14 22.69 26.24 22.61L26.28 22.56C26.36 22.47 26.44 22.38 26.54 22.3L26.58 22.25C26.66 22.16 26.74 22.07 26.83 21.99L26.88 21.94C26.96 21.85 27.05 21.77 27.13 21.68L27.18 21.63C27.26 21.54 27.35 21.45 27.43 21.37L27.48 21.32C27.56 21.23 27.65 21.15 27.73 21.06L27.78 21.01C28.41 20.28 29.33 19.87 30.29 19.87C31.25 19.87 32.16 20.28 32.8 21.02L32.84 21.06C32.93 21.15 33.02 21.23 33.09 21.32L33.14 21.37C33.24 21.46 33.32 21.54 33.39 21.63L33.44 21.68C33.53 21.77 33.62 21.85 33.69 21.94L33.74 21.99C33.83 22.07 33.92 22.16 33.99 22.25L34.04 22.3C34.13 22.38 34.21 22.47 34.3 22.56L34.34 22.61C34.43 22.7 34.51 22.78 34.6 22.87L34.64 22.92C34.73 23.01 34.81 23.09 34.9 23.18L34.94 23.23C35.03 23.31 35.11 23.4 35.19 23.49L35.24 23.54C35.33 23.62 35.41 23.71 35.49 23.8L35.54 23.85C35.63 23.93 35.71 24.02 35.79 24.11L35.84 24.16C35.93 24.24 36.02 24.33 36.09 24.42L36.14 24.47C36.23 24.55 36.31 24.64 36.39 24.73L36.44 24.78C36.53 24.86 36.61 24.95 36.69 25.04L36.74 25.09C36.83 25.17 36.91 25.26 36.99 25.35L37.04 25.4C37.13 25.48 37.21 25.56 37.29 25.65L37.34 25.71C37.42 25.79 37.51 25.88 37.59 25.96L37.64 26.02C37.72 26.1 37.81 26.18 37.89 26.27L37.94 26.32C38.03 26.41 38.11 26.49 38.19 26.58L38.24 26.63C38.32 26.71 38.41 26.8 38.49 26.89L38.53 26.94C38.62 27.03 38.71 27.11 38.79 27.2L38.83 27.25C39.58 27.94 39.96 28.9 39.89 29.91L39.89 29.91Z" fill="#FFFFFF" fill-opacity="1.000000" fill-rule="nonzero"/>
		</g>
		<rect id="Logotype 1" rx="-0.500000" width="102.102325" height="39.000000" transform="translate(49.500000 0.500000)" fill="#FFFFFF" fill-opacity="0"/>
		<g clip-path="url(#clip2_16)">
			<path id="Vector" d="M61.06 16.47C62.32 16.47 63.32 16.88 64.07 17.69C64.82 18.51 65.19 19.6 65.19 20.97L65.19 27.69L62.37 27.69L62.37 21.16C62.37 20.51 62.21 20 61.89 19.64C61.57 19.27 61.12 19.09 60.54 19.09C59.9 19.09 59.4 19.3 59.05 19.72C58.69 20.14 58.51 20.76 58.51 21.56L58.51 27.69L55.7 27.69L55.7 21.16C55.7 20.51 55.54 20 55.22 19.64C54.9 19.27 54.45 19.09 53.86 19.09C53.24 19.09 52.74 19.3 52.37 19.72C52 20.14 51.81 20.76 51.81 21.56L51.81 27.69L49 27.69L49 16.78L51.81 16.78L51.81 17.93C52.46 16.96 53.48 16.47 54.84 16.47C56.21 16.47 57.17 16.99 57.81 18.04C58.54 16.99 59.62 16.47 61.06 16.47L61.06 16.47Z" fill="#FFFFFF" fill-opacity="1.000000" fill-rule="nonzero"/>
			<path id="Vector" d="M67.68 15.47C67.21 15.47 66.81 15.29 66.47 14.95C66.13 14.61 65.95 14.21 65.95 13.74C65.95 13.28 66.13 12.87 66.47 12.52C66.81 12.17 67.21 12 67.68 12C68.14 12 68.57 12.17 68.91 12.52C69.25 12.87 69.42 13.28 69.42 13.74C69.42 14.21 69.25 14.61 68.91 14.95C68.57 15.29 68.16 15.47 67.68 15.47ZM66.28 27.69L66.28 16.78L69.1 16.78L69.1 27.69L66.28 27.69Z" fill="#FFFFFF" fill-opacity="1.000000" fill-rule="nonzero"/>
			<path id="Vector" d="M75.95 27.99C74.3 27.99 72.93 27.44 71.84 26.33C70.74 25.23 70.19 23.86 70.19 22.23C70.19 20.6 70.74 19.23 71.84 18.13C72.93 17.02 74.3 16.47 75.95 16.47C77.01 16.47 77.98 16.72 78.85 17.23C79.73 17.74 80.39 18.43 80.84 19.29L78.42 20.7C78.2 20.25 77.87 19.9 77.42 19.64C76.98 19.37 76.48 19.24 75.93 19.24C75.08 19.24 74.38 19.52 73.83 20.08C73.28 20.64 73 21.36 73 22.23C73 23.11 73.28 23.8 73.83 24.36C74.39 24.92 75.08 25.2 75.93 25.2C76.5 25.2 77 25.07 77.44 24.82C77.89 24.56 78.22 24.21 78.44 23.76L80.88 25.16C80.4 26.01 79.73 26.7 78.85 27.22C77.98 27.74 77.01 27.99 75.95 27.99L75.95 27.99Z" fill="#FFFFFF" fill-opacity="1.000000" fill-rule="nonzero"/>
			<path id="Vector" d="M84.57 18.65C84.83 17.95 85.27 17.43 85.87 17.08C86.47 16.73 87.15 16.56 87.89 16.56L87.89 19.7C87.03 19.6 86.26 19.77 85.58 20.22C84.91 20.68 84.57 21.42 84.57 22.47L84.57 27.69L81.75 27.69L81.75 16.78L84.57 16.78L84.57 18.65L84.57 18.65Z" fill="#FFFFFF" fill-opacity="1.000000" fill-rule="nonzero"/>
			<path id="Vector" d="M98.28 26.33C97.16 27.44 95.79 28 94.17 28C92.56 28 91.19 27.44 90.08 26.33C88.97 25.21 88.41 23.85 88.41 22.23C88.41 20.62 88.97 19.25 90.08 18.14C91.19 17.03 92.56 16.47 94.17 16.47C95.79 16.47 97.16 17.03 98.28 18.14C99.4 19.25 99.96 20.62 99.96 22.23C99.96 23.85 99.4 25.21 98.28 26.33ZM92.07 24.39C92.63 24.96 93.33 25.24 94.17 25.24C95.02 25.24 95.72 24.96 96.29 24.39C96.86 23.83 97.14 23.11 97.14 22.23C97.14 21.36 96.86 20.64 96.29 20.07C95.72 19.5 95.02 19.22 94.17 19.22C93.33 19.22 92.63 19.5 92.07 20.07C91.51 20.64 91.23 21.36 91.23 22.23C91.23 23.11 91.51 23.83 92.07 24.39Z" fill="#FFFFFF" fill-opacity="1.000000" fill-rule="nonzero"/>
			<path id="Vector" d="M113.03 16.47C114.28 16.47 115.28 16.88 116.03 17.69C116.78 18.51 117.16 19.6 117.16 20.97L117.16 27.69L114.34 27.69L114.34 21.16C114.34 20.51 114.18 20 113.86 19.64C113.54 19.27 113.09 19.09 112.51 19.09C111.87 19.09 111.37 19.3 111.01 19.72C110.66 20.14 110.48 20.76 110.48 21.56L110.48 27.69L107.66 27.69L107.66 21.16C107.66 20.51 107.5 20 107.18 19.64C106.86 19.27 106.41 19.09 105.83 19.09C105.2 19.09 104.7 19.3 104.33 19.72C103.96 20.14 103.78 20.76 103.78 21.56L103.78 27.69L100.96 27.69L100.96 16.78L103.78 16.78L103.78 17.93C104.43 16.96 105.44 16.47 106.81 16.47C108.18 16.47 109.14 16.99 109.78 18.04C110.51 16.99 111.59 16.47 113.03 16.47L113.03 16.47Z" fill="#FFFFFF" fill-opacity="1.000000" fill-rule="nonzero"/>
			<path id="Vector" d="M126.87 16.78L129.68 16.78L129.68 27.69L126.87 27.69L126.87 26.4C126.02 27.46 124.84 27.99 123.31 27.99C121.78 27.99 120.61 27.44 119.57 26.32C118.53 25.21 118.01 23.85 118.01 22.23C118.01 20.62 118.53 19.25 119.57 18.14C120.61 17.03 121.86 16.47 123.31 16.47C124.84 16.47 126.03 17 126.87 18.06L126.87 16.78L126.87 16.78ZM121.67 24.45C122.24 25.02 122.96 25.31 123.83 25.31C124.71 25.31 125.43 25.02 126.01 24.45C126.58 23.87 126.87 23.13 126.87 22.23C126.87 21.33 126.58 20.59 126.01 20.02C125.43 19.44 124.71 19.15 123.83 19.15C122.96 19.15 122.24 19.44 121.67 20.02C121.11 20.59 120.82 21.33 120.82 22.23C120.82 23.13 121.11 23.87 121.67 24.45Z" fill="#FFFFFF" fill-opacity="1.000000" fill-rule="nonzero"/>
			<path id="Vector" d="M133.59 18.65C133.85 17.95 134.28 17.43 134.89 17.08C135.49 16.73 136.17 16.56 136.91 16.56L136.91 19.7C136.05 19.6 135.28 19.77 134.6 20.22C133.93 20.68 133.59 21.42 133.59 22.47L133.59 27.69L130.77 27.69L130.77 16.78L133.59 16.78L133.59 18.65L133.59 18.65Z" fill="#FFFFFF" fill-opacity="1.000000" fill-rule="nonzero"/>
			<path id="Vector" d="M139.39 15.47C138.93 15.47 138.53 15.29 138.18 14.95C137.84 14.61 137.67 14.21 137.67 13.74C137.67 13.28 137.84 12.87 138.18 12.52C138.53 12.17 138.93 12 139.39 12C139.86 12 140.29 12.17 140.63 12.52C140.97 12.87 141.14 13.28 141.14 13.74C141.14 14.21 140.97 14.61 140.63 14.95C140.29 15.29 139.88 15.47 139.39 15.47ZM138 27.69L138 16.78L140.81 16.78L140.81 27.69L138 27.69Z" fill="#FFFFFF" fill-opacity="1.000000" fill-rule="nonzero"/>
			<path id="Vector" d="M147.97 16.47C149.17 16.47 150.15 16.87 150.93 17.67C151.71 18.47 152.1 19.58 152.1 20.99L152.1 27.69L149.28 27.69L149.28 21.34C149.28 20.61 149.09 20.05 148.69 19.67C148.3 19.28 147.78 19.09 147.12 19.09C146.39 19.09 145.81 19.32 145.38 19.77C144.94 20.22 144.72 20.89 144.72 21.8L144.72 27.69L141.91 27.69L141.91 16.78L144.72 16.78L144.72 18C145.4 16.98 146.49 16.47 147.97 16.47L147.97 16.47Z" fill="#FFFFFF" fill-opacity="1.000000" fill-rule="nonzero"/>
		</g>
	</g>
</svg>
