<svg width="38.000000" height="38.000000" viewBox="0 0 38 38" fill="none" xmlns="http://www.w3.org/2000/svg" xmlns:xlink="http://www.w3.org/1999/xlink">
	<desc>
			Created with Pixso.
	</desc>
	<defs>
		<clipPath id="clip2_275">
			<rect id="More" rx="5.500000" width="37.000000" height="37.000000" transform="translate(0.500000 0.500000)" fill="white" fill-opacity="0"/>
		</clipPath>
	</defs>
	<rect id="More" rx="5.500000" width="37.000000" height="37.000000" transform="translate(0.500000 0.500000)" fill="#FFFFFF" fill-opacity="1.000000"/>
	<g clip-path="url(#clip2_275)">
		<path id="Vector" d="M18.99 10C17.89 10 16.99 10.9 16.99 12C16.99 13.1 17.89 14 18.99 14C20.09 14 20.99 13.1 20.99 12C20.99 10.9 20.09 10 18.99 10Z" fill="#292929" fill-opacity="1.000000" fill-rule="nonzero"/>
		<path id="Vector" d="M18.99 24C17.89 24 16.99 24.9 16.99 26C16.99 27.1 17.89 28 18.99 28C20.09 28 20.99 27.1 20.99 26C20.99 24.9 20.09 24 18.99 24Z" fill="#292929" fill-opacity="1.000000" fill-rule="nonzero"/>
		<path id="Vector" d="M18.99 16.99C17.89 16.99 16.99 17.89 16.99 18.99C16.99 20.09 17.89 20.99 18.99 20.99C20.09 20.99 20.99 20.09 20.99 18.99C20.99 17.89 20.09 16.99 18.99 16.99Z" fill="#292929" fill-opacity="1.000000" fill-rule="nonzero"/>
		<g opacity="0.000000"/>
	</g>
	<rect id="More" rx="5.500000" width="37.000000" height="37.000000" transform="translate(0.500000 0.500000)" stroke="#CDCDCD" stroke-opacity="1.000000" stroke-width="1.000000"/>
</svg>
