<svg width="54.000000" height="54.000000" viewBox="0 0 54 54" fill="none" xmlns="http://www.w3.org/2000/svg" xmlns:xlink="http://www.w3.org/1999/xlink">
	<desc>
			Created with Pixso.
	</desc>
	<defs/>
	<path id="Vector" d="M27 21.43L27 24.76" stroke="#292929" stroke-opacity="0.800000" stroke-width="1.500000" stroke-linecap="round"/>
	<path id="Vector" d="M20.36 23.65L20.36 25.75C20.36 26.43 20.08 27.45 19.73 28.03L18.46 30.15C17.68 31.46 18.22 32.92 19.66 33.4C24.44 34.99 29.61 34.99 34.39 33.4C35.74 32.95 36.32 31.37 35.59 30.15L34.32 28.03C33.97 27.45 33.69 26.42 33.69 25.75L33.69 23.65C33.68 19.99 30.68 16.99 27.02 16.99C23.34 16.99 20.36 19.97 20.36 23.65Z" stroke="#292929" stroke-opacity="0.800000" stroke-width="2.000000"/>
	<path id="Vector" d="M30.33 33.82C30.33 35.65 28.83 37.15 27 37.15C26.09 37.15 25.25 36.77 24.65 36.17C24.05 35.57 23.67 34.73 23.67 33.82" stroke="#292929" stroke-opacity="0.800000" stroke-width="2.000000"/>
	<g opacity="0.000000">
		<path id="Vector" d="M15 15L39 15L39 39L15 39L15 15ZM16 38L16 16L38 16L38 38L16 38Z" fill="#FFFFFF" fill-opacity="1.000000" fill-rule="evenodd"/>
	</g>
	<rect id="Frame 310" rx="10.000000" width="20.000000" height="20.000000" transform="translate(28.500000 4.500000)" fill="#CC2E2E" fill-opacity="1.000000"/>
	<path id="15543" d="M41.99 16.37C41.99 17.97 40.52 19.13 38.49 19.13C36.5 19.13 35.07 18.02 35.03 16.42L36.77 16.42C36.81 17.2 37.54 17.69 38.49 17.69C39.5 17.69 40.23 17.12 40.22 16.28C40.23 15.43 39.52 14.83 38.32 14.83L37.49 14.83L37.49 13.51L38.32 13.51C39.3 13.51 39.98 12.96 39.98 12.13C39.98 11.34 39.4 10.8 38.51 10.8C37.64 10.8 36.9 11.3 36.88 12.09L35.23 12.09C35.26 10.51 36.69 9.41 38.52 9.41C40.41 9.41 41.64 10.59 41.63 12.03C41.64 13.09 40.95 13.85 39.93 14.07L39.93 14.15C41.25 14.34 41.99 15.19 41.99 16.37Z" fill="#FFFFFF" fill-opacity="1.000000" fill-rule="evenodd"/>
</svg>
