<svg width="20.000000" height="20.000000" viewBox="0 0 20 20" fill="none" xmlns="http://www.w3.org/2000/svg" xmlns:xlink="http://www.w3.org/1999/xlink">
	<desc>
			Created with Pixso.
	</desc>
	<defs/>
	<path id="Vector" d="M13.95 5.83L13.95 4.16C13.95 2.49 13.33 1.66 11.45 1.66L8.54 1.66C6.66 1.66 6.04 2.49 6.04 4.16L6.04 5.83L13.95 5.83Z" stroke="#292929" stroke-opacity="0.800000" stroke-width="1.000000" stroke-linejoin="round"/>
	<path id="Vector" d="M13.33 15.83C13.33 17.5 12.49 18.33 10.83 18.33L9.16 18.33C7.49 18.33 6.66 17.5 6.66 15.83L6.66 12.5L13.33 12.5L13.33 15.83Z" stroke="#292929" stroke-opacity="0.800000" stroke-width="1.000000" stroke-linejoin="round"/>
	<path id="Vector" d="M17.5 12.5C17.5 14.16 16.66 15 15 15L13.33 15L13.33 12.5L6.66 12.5L6.66 15L5 15C3.33 15 2.5 14.16 2.5 12.5L2.5 8.33C2.5 6.66 3.33 5.83 5 5.83L15 5.83C16.66 5.83 17.5 6.66 17.5 8.33L17.5 12.5Z" stroke="#292929" stroke-opacity="0.800000" stroke-width="1.000000" stroke-linejoin="round"/>
	<path id="Vector" d="M14.16 12.5L13.15 12.5L5.83 12.5" stroke="#292929" stroke-opacity="0.800000" stroke-width="1.000000" stroke-linejoin="round" stroke-linecap="round"/>
	<path id="Vector" d="M5.83 9.16L8.33 9.16" stroke="#292929" stroke-opacity="0.800000" stroke-width="1.000000" stroke-linejoin="round" stroke-linecap="round"/>
	<g opacity="0.000000">
		<path id="Vector" d="M0 0L20 0L20 20L0 20L0 0ZM1 19L1 1L19 1L19 19L1 19Z" fill="#292929" fill-opacity="1.000000" fill-rule="evenodd"/>
	</g>
</svg>
