<svg width="40.000000" height="40.000000" viewBox="0 0 40 40" fill="none" xmlns="http://www.w3.org/2000/svg" xmlns:xlink="http://www.w3.org/1999/xlink">
	<desc>
			Created with Pixso.
	</desc>
	<defs>
		<clipPath id="clip2_147">
			<rect id="Icon" rx="-0.500000" width="39.000000" height="39.000000" transform="translate(0.500000 0.500000)" fill="white" fill-opacity="0"/>
		</clipPath>
	</defs>
	<g clip-path="url(#clip2_147)">
		<path id="Vector" d="M16.69 27.83C18.55 29.69 21.57 29.69 23.44 27.83L27.83 23.44C29.69 21.58 29.69 18.56 27.83 16.69L23.29 12.17C22.34 11.22 21.03 10.71 19.69 10.78L14.69 11.02C12.69 11.11 11.1 12.7 11 14.69L10.76 19.69C10.7 21.04 11.21 22.35 12.16 23.3L16.69 27.83Z" stroke="#FFFFFF" stroke-opacity="1.000000" stroke-width="1.500000" stroke-linejoin="round"/>
		<g opacity="0.400000">
			<path id="Vector" d="M17.49 20C16.11 20 14.99 18.88 14.99 17.5C14.99 16.11 16.11 15 17.49 15C18.88 15 19.99 16.11 19.99 17.5C19.99 18.88 18.88 20 17.49 20Z" stroke="#FFFFFF" stroke-opacity="1.000000" stroke-width="1.500000"/>
		</g>
		<g opacity="0.000000">
			<path id="Vector" d="M8 8L32 8L32 32L8 32L8 8ZM9 31L9 9L31 9L31 31L9 31Z" fill="#FFFFFF" fill-opacity="1.000000" fill-rule="evenodd"/>
		</g>
	</g>
</svg>
