<svg width="34.000000" height="34.000000" viewBox="0 0 34 34" fill="none" xmlns="http://www.w3.org/2000/svg" xmlns:xlink="http://www.w3.org/1999/xlink">
	<desc>
			Created with Pixso.
	</desc>
	<defs>
		<clipPath id="clip2_235">
			<rect id="User-ımage" rx="16.500000" width="33.000000" height="33.000000" transform="translate(0.500000 0.500000)" fill="white" fill-opacity="0"/>
		</clipPath>
	</defs>
	<rect id="User-ımage" rx="16.500000" width="33.000000" height="33.000000" transform="translate(0.500000 0.500000)" fill="#175DF7" fill-opacity="1.000000"/>
	<g clip-path="url(#clip2_235)">
		<path id="ÖU" d="M10.89 9.76C10.89 10.26 10.47 10.69 9.93 10.69C9.41 10.69 8.97 10.26 8.97 9.76C8.97 9.22 9.41 8.82 9.93 8.82C10.47 8.82 10.89 9.22 10.89 9.76ZM13.87 9.76C13.87 10.26 13.45 10.69 12.92 10.69C12.39 10.69 11.95 10.26 11.95 9.76C11.95 9.22 12.39 8.82 12.92 8.82C13.45 8.82 13.87 9.22 13.87 9.76ZM11.42 11.67C14.09 11.67 16.1 13.61 16.1 16.91C16.1 20.19 14.09 22.14 11.42 22.14C8.74 22.14 6.74 20.19 6.74 16.91C6.74 13.61 8.74 11.67 11.42 11.67ZM24.27 18.31L24.27 11.81L26.11 11.81L26.11 18.46C26.11 20.65 24.46 22.15 21.98 22.15C19.49 22.15 17.85 20.65 17.85 18.46L17.85 11.81L19.69 11.81L19.69 18.31C19.69 19.59 20.58 20.5 21.98 20.5C23.37 20.5 24.27 19.59 24.27 18.31ZM11.42 20.48C13.08 20.48 14.24 19.22 14.24 16.91C14.24 14.59 13.08 13.33 11.42 13.33C9.77 13.33 8.6 14.59 8.6 16.91C8.6 19.22 9.77 20.48 11.42 20.48Z" fill="#FFFFFF" fill-opacity="1.000000" fill-rule="evenodd"/>
	</g>
</svg>
